<mxfile host="localhost" agent="Mozilla/5.0 (X11; Linux x86_64) AppleWebKit/537.36 (KHTML, like Gecko) Chrome/130.0.0.0 Safari/537.36" version="24.7.5">
  <diagram name="Page-1" id="3HvSwOzNqZAmu8Qb_NfY">
    <mxGraphModel dx="853" dy="506" grid="1" gridSize="10" guides="1" tooltips="1" connect="1" arrows="1" fold="1" page="1" pageScale="1" pageWidth="850" pageHeight="1100" background="#000000" math="0" shadow="0">
      <root>
        <mxCell id="0" />
        <mxCell id="1" parent="0" />
        <mxCell id="Gi1MZeBFoFd4xO1vJ5Tg-1" value="VPC" style="points=[[0,0],[0.25,0],[0.5,0],[0.75,0],[1,0],[1,0.25],[1,0.5],[1,0.75],[1,1],[0.75,1],[0.5,1],[0.25,1],[0,1],[0,0.75],[0,0.5],[0,0.25]];outlineConnect=0;gradientColor=none;html=1;whiteSpace=wrap;fontSize=12;fontStyle=0;container=1;pointerEvents=0;collapsible=0;recursiveResize=0;shape=mxgraph.aws4.group;grIcon=mxgraph.aws4.group_vpc2;strokeColor=#532F96;fillColor=none;verticalAlign=top;align=left;spacingLeft=30;fontColor=#7441D1;dashed=0;" vertex="1" parent="1">
          <mxGeometry x="50" y="310" width="750" height="560" as="geometry" />
        </mxCell>
        <mxCell id="Gi1MZeBFoFd4xO1vJ5Tg-5" value="Public subnet" style="points=[[0,0],[0.25,0],[0.5,0],[0.75,0],[1,0],[1,0.25],[1,0.5],[1,0.75],[1,1],[0.75,1],[0.5,1],[0.25,1],[0,1],[0,0.75],[0,0.5],[0,0.25]];outlineConnect=0;gradientColor=none;html=1;whiteSpace=wrap;fontSize=12;fontStyle=0;container=0;pointerEvents=0;collapsible=0;recursiveResize=0;shape=mxgraph.aws4.group;grIcon=mxgraph.aws4.group_security_group;grStroke=0;strokeColor=#49610D;fillColor=#13260E;verticalAlign=top;align=left;spacingLeft=30;fontColor=#248814;dashed=0;" vertex="1" parent="Gi1MZeBFoFd4xO1vJ5Tg-1">
          <mxGeometry x="525" y="210" width="205" height="130" as="geometry" />
        </mxCell>
        <mxCell id="Gi1MZeBFoFd4xO1vJ5Tg-3" value="Public subnet" style="points=[[0,0],[0.25,0],[0.5,0],[0.75,0],[1,0],[1,0.25],[1,0.5],[1,0.75],[1,1],[0.75,1],[0.5,1],[0.25,1],[0,1],[0,0.75],[0,0.5],[0,0.25]];outlineConnect=0;gradientColor=none;html=1;whiteSpace=wrap;fontSize=12;fontStyle=0;container=0;pointerEvents=0;collapsible=0;recursiveResize=0;shape=mxgraph.aws4.group;grIcon=mxgraph.aws4.group_security_group;grStroke=0;strokeColor=#49610D;fillColor=#13260E;verticalAlign=top;align=left;spacingLeft=30;fontColor=#248814;dashed=0;" vertex="1" parent="Gi1MZeBFoFd4xO1vJ5Tg-1">
          <mxGeometry x="280" y="210" width="205" height="130" as="geometry" />
        </mxCell>
        <mxCell id="BMS2Mz-b5TJ1Ghw7ewQl-9" value="Availability zone C" style="sketch=0;outlineConnect=0;gradientColor=none;html=1;whiteSpace=wrap;fontSize=12;fontStyle=0;shape=mxgraph.aws4.group;grIcon=mxgraph.aws4.group_availability_zone;strokeColor=#7D7D7D;fillColor=none;verticalAlign=top;align=left;spacingLeft=30;fontColor=#BFBFBF;dashed=1;" parent="1" vertex="1">
          <mxGeometry x="565" y="490" width="225" height="370" as="geometry" />
        </mxCell>
        <mxCell id="BMS2Mz-b5TJ1Ghw7ewQl-8" value="Availability zone B" style="sketch=0;outlineConnect=0;gradientColor=none;html=1;whiteSpace=wrap;fontSize=12;fontStyle=0;shape=mxgraph.aws4.group;grIcon=mxgraph.aws4.group_availability_zone;strokeColor=#7D7D7D;fillColor=none;verticalAlign=top;align=left;spacingLeft=30;fontColor=#BFBFBF;dashed=1;" parent="1" vertex="1">
          <mxGeometry x="320" y="490" width="225" height="370" as="geometry" />
        </mxCell>
        <mxCell id="tg-r_l2TtVME0M1dG1qx-5" style="edgeStyle=orthogonalEdgeStyle;rounded=0;orthogonalLoop=1;jettySize=auto;html=1;startArrow=classic;startFill=1;strokeColor=#9C9C9C;" parent="1" source="Gi1MZeBFoFd4xO1vJ5Tg-9" target="BMS2Mz-b5TJ1Ghw7ewQl-18" edge="1">
          <mxGeometry relative="1" as="geometry">
            <mxPoint x="425.4999999999998" y="163" as="sourcePoint" />
          </mxGeometry>
        </mxCell>
        <mxCell id="2dPKX-ZT463_K8sY5YlC-3" value="Private subnet" style="points=[[0,0],[0.25,0],[0.5,0],[0.75,0],[1,0],[1,0.25],[1,0.5],[1,0.75],[1,1],[0.75,1],[0.5,1],[0.25,1],[0,1],[0,0.75],[0,0.5],[0,0.25]];outlineConnect=0;gradientColor=none;html=1;whiteSpace=wrap;fontSize=12;fontStyle=0;container=1;pointerEvents=0;collapsible=0;recursiveResize=0;shape=mxgraph.aws4.group;grIcon=mxgraph.aws4.group_security_group;grStroke=0;strokeColor=#008082;fillColor=#004647;verticalAlign=top;align=left;spacingLeft=30;fontColor=#008D8F;dashed=0;" parent="1" vertex="1">
          <mxGeometry x="330" y="660" width="205" height="190" as="geometry" />
        </mxCell>
        <mxCell id="BMS2Mz-b5TJ1Ghw7ewQl-1" value="Region X" style="points=[[0,0],[0.25,0],[0.5,0],[0.75,0],[1,0],[1,0.25],[1,0.5],[1,0.75],[1,1],[0.75,1],[0.5,1],[0.25,1],[0,1],[0,0.75],[0,0.5],[0,0.25]];outlineConnect=0;gradientColor=none;html=1;whiteSpace=wrap;fontSize=12;fontStyle=0;container=0;pointerEvents=0;collapsible=0;recursiveResize=0;shape=mxgraph.aws4.group;grIcon=mxgraph.aws4.group_region;strokeColor=#008082;fillColor=none;verticalAlign=top;align=left;spacingLeft=30;fontColor=#008082;dashed=1;strokeWidth=2;" parent="1" vertex="1">
          <mxGeometry x="40" y="240" width="770" height="640" as="geometry" />
        </mxCell>
        <mxCell id="BMS2Mz-b5TJ1Ghw7ewQl-3" value="Availability zone A" style="sketch=0;outlineConnect=0;gradientColor=none;html=1;whiteSpace=wrap;fontSize=12;fontStyle=0;shape=mxgraph.aws4.group;grIcon=mxgraph.aws4.group_availability_zone;strokeColor=#7D7D7D;fillColor=none;verticalAlign=top;align=left;spacingLeft=30;fontColor=#BFBFBF;dashed=1;" parent="1" vertex="1">
          <mxGeometry x="60" y="490" width="225" height="370" as="geometry" />
        </mxCell>
        <mxCell id="BMS2Mz-b5TJ1Ghw7ewQl-11" value="Internet Facing ALB" style="sketch=0;outlineConnect=0;fontColor=#7D7D7D;gradientColor=none;fillColor=#532F96;strokeColor=none;dashed=0;verticalLabelPosition=bottom;verticalAlign=top;align=left;html=1;fontSize=14;fontStyle=0;aspect=fixed;pointerEvents=1;shape=mxgraph.aws4.application_load_balancer;labelPosition=right;" parent="1" vertex="1">
          <mxGeometry x="396" y="390" width="58" height="58" as="geometry" />
        </mxCell>
        <mxCell id="tg-r_l2TtVME0M1dG1qx-2" style="edgeStyle=orthogonalEdgeStyle;rounded=0;orthogonalLoop=1;jettySize=auto;html=1;startArrow=classic;startFill=1;strokeColor=#9C9C9C;" parent="1" source="BMS2Mz-b5TJ1Ghw7ewQl-18" target="BMS2Mz-b5TJ1Ghw7ewQl-11" edge="1">
          <mxGeometry relative="1" as="geometry" />
        </mxCell>
        <mxCell id="2dPKX-ZT463_K8sY5YlC-5" value="Public subnet" style="points=[[0,0],[0.25,0],[0.5,0],[0.75,0],[1,0],[1,0.25],[1,0.5],[1,0.75],[1,1],[0.75,1],[0.5,1],[0.25,1],[0,1],[0,0.75],[0,0.5],[0,0.25]];outlineConnect=0;gradientColor=none;html=1;whiteSpace=wrap;fontSize=12;fontStyle=0;container=0;pointerEvents=0;collapsible=0;recursiveResize=0;shape=mxgraph.aws4.group;grIcon=mxgraph.aws4.group_security_group;grStroke=0;strokeColor=#49610D;fillColor=#13260E;verticalAlign=top;align=left;spacingLeft=30;fontColor=#248814;dashed=0;" parent="1" vertex="1">
          <mxGeometry x="70" y="520" width="205" height="130" as="geometry" />
        </mxCell>
        <mxCell id="BMS2Mz-b5TJ1Ghw7ewQl-18" value="IGW" style="sketch=0;outlineConnect=0;fontColor=#7D7D7D;gradientColor=none;fillColor=#532F96;strokeColor=none;dashed=0;verticalLabelPosition=bottom;verticalAlign=top;align=left;html=1;fontSize=14;fontStyle=0;aspect=fixed;pointerEvents=1;shape=mxgraph.aws4.internet_gateway;labelPosition=right;" parent="1" vertex="1">
          <mxGeometry x="396" y="280" width="59" height="59" as="geometry" />
        </mxCell>
        <mxCell id="Um3nSmA3bwq-HLZAkocZ-3" value="NAT Gateway" style="sketch=0;outlineConnect=0;fontColor=#7D7D7D;gradientColor=none;fillColor=#532F96;strokeColor=none;dashed=0;verticalLabelPosition=bottom;verticalAlign=top;align=center;html=1;fontSize=12;fontStyle=0;aspect=fixed;pointerEvents=1;shape=mxgraph.aws4.nat_gateway;" parent="1" vertex="1">
          <mxGeometry x="648.5" y="556" width="58" height="58" as="geometry" />
        </mxCell>
        <mxCell id="2dPKX-ZT463_K8sY5YlC-2" value="Private subnet" style="points=[[0,0],[0.25,0],[0.5,0],[0.75,0],[1,0],[1,0.25],[1,0.5],[1,0.75],[1,1],[0.75,1],[0.5,1],[0.25,1],[0,1],[0,0.75],[0,0.5],[0,0.25]];outlineConnect=0;gradientColor=none;html=1;whiteSpace=wrap;fontSize=12;fontStyle=0;container=1;pointerEvents=0;collapsible=0;recursiveResize=0;shape=mxgraph.aws4.group;grIcon=mxgraph.aws4.group_security_group;grStroke=0;strokeColor=#008082;fillColor=#004647;verticalAlign=top;align=left;spacingLeft=30;fontColor=#008D8F;dashed=0;" parent="1" vertex="1">
          <mxGeometry x="70" y="660" width="205" height="190" as="geometry" />
        </mxCell>
        <mxCell id="2dPKX-ZT463_K8sY5YlC-4" value="Private subnet" style="points=[[0,0],[0.25,0],[0.5,0],[0.75,0],[1,0],[1,0.25],[1,0.5],[1,0.75],[1,1],[0.75,1],[0.5,1],[0.25,1],[0,1],[0,0.75],[0,0.5],[0,0.25]];outlineConnect=0;gradientColor=none;html=1;whiteSpace=wrap;fontSize=12;fontStyle=0;container=1;pointerEvents=0;collapsible=0;recursiveResize=0;shape=mxgraph.aws4.group;grIcon=mxgraph.aws4.group_security_group;grStroke=0;strokeColor=#008082;fillColor=#004647;verticalAlign=top;align=left;spacingLeft=30;fontColor=#008D8F;dashed=0;" parent="1" vertex="1">
          <mxGeometry x="575" y="660" width="205" height="190" as="geometry" />
        </mxCell>
        <mxCell id="BMS2Mz-b5TJ1Ghw7ewQl-12" value="Auto Scaling group" style="points=[[0,0],[0.25,0],[0.5,0],[0.75,0],[1,0],[1,0.25],[1,0.5],[1,0.75],[1,1],[0.75,1],[0.5,1],[0.25,1],[0,1],[0,0.75],[0,0.5],[0,0.25]];outlineConnect=0;gradientColor=none;html=1;whiteSpace=wrap;fontSize=12;fontStyle=0;container=0;pointerEvents=0;collapsible=0;recursiveResize=0;shape=mxgraph.aws4.groupCenter;grIcon=mxgraph.aws4.group_auto_scaling_group;grStroke=1;strokeColor=#A85100;fillColor=none;verticalAlign=top;align=center;fontColor=#BFBFBF;dashed=1;spacingTop=25;" parent="1" vertex="1">
          <mxGeometry x="70" y="690" width="710" height="160" as="geometry" />
        </mxCell>
        <mxCell id="Um3nSmA3bwq-HLZAkocZ-1" value="NAT Gateway" style="sketch=0;outlineConnect=0;fontColor=#7D7D7D;gradientColor=none;fillColor=#532F96;strokeColor=none;dashed=0;verticalLabelPosition=bottom;verticalAlign=top;align=center;html=1;fontSize=12;fontStyle=0;aspect=fixed;pointerEvents=1;shape=mxgraph.aws4.nat_gateway;" parent="1" vertex="1">
          <mxGeometry x="143.5" y="556" width="58" height="58" as="geometry" />
        </mxCell>
        <mxCell id="BMS2Mz-b5TJ1Ghw7ewQl-17" style="edgeStyle=orthogonalEdgeStyle;rounded=0;orthogonalLoop=1;jettySize=auto;html=1;startArrow=classic;startFill=1;strokeColor=#9C9C9C;" parent="1" source="BMS2Mz-b5TJ1Ghw7ewQl-11" target="BMS2Mz-b5TJ1Ghw7ewQl-12" edge="1">
          <mxGeometry relative="1" as="geometry" />
        </mxCell>
        <mxCell id="Gi1MZeBFoFd4xO1vJ5Tg-6" value="EC2 Instance" style="sketch=0;points=[[0,0,0],[0.25,0,0],[0.5,0,0],[0.75,0,0],[1,0,0],[0,1,0],[0.25,1,0],[0.5,1,0],[0.75,1,0],[1,1,0],[0,0.25,0],[0,0.5,0],[0,0.75,0],[1,0.25,0],[1,0.5,0],[1,0.75,0]];outlineConnect=0;fontColor=#BFBFBF;fillColor=#A85100;strokeColor=#ffffff;dashed=0;verticalLabelPosition=bottom;verticalAlign=top;align=center;html=1;fontSize=12;fontStyle=0;aspect=fixed;shape=mxgraph.aws4.resourceIcon;resIcon=mxgraph.aws4.ec2;" vertex="1" parent="1">
          <mxGeometry x="133.5" y="741" width="78" height="78" as="geometry" />
        </mxCell>
        <mxCell id="Gi1MZeBFoFd4xO1vJ5Tg-7" value="EC2 Instance" style="sketch=0;points=[[0,0,0],[0.25,0,0],[0.5,0,0],[0.75,0,0],[1,0,0],[0,1,0],[0.25,1,0],[0.5,1,0],[0.75,1,0],[1,1,0],[0,0.25,0],[0,0.5,0],[0,0.75,0],[1,0.25,0],[1,0.5,0],[1,0.75,0]];outlineConnect=0;fontColor=#BFBFBF;fillColor=#A85100;strokeColor=#ffffff;dashed=0;verticalLabelPosition=bottom;verticalAlign=top;align=center;html=1;fontSize=12;fontStyle=0;aspect=fixed;shape=mxgraph.aws4.resourceIcon;resIcon=mxgraph.aws4.ec2;" vertex="1" parent="1">
          <mxGeometry x="386.5" y="741" width="78" height="78" as="geometry" />
        </mxCell>
        <mxCell id="Gi1MZeBFoFd4xO1vJ5Tg-8" value="EC2 Instance" style="sketch=0;points=[[0,0,0],[0.25,0,0],[0.5,0,0],[0.75,0,0],[1,0,0],[0,1,0],[0.25,1,0],[0.5,1,0],[0.75,1,0],[1,1,0],[0,0.25,0],[0,0.5,0],[0,0.75,0],[1,0.25,0],[1,0.5,0],[1,0.75,0]];outlineConnect=0;fontColor=#BFBFBF;fillColor=#A85100;strokeColor=#ffffff;dashed=0;verticalLabelPosition=bottom;verticalAlign=top;align=center;html=1;fontSize=12;fontStyle=0;aspect=fixed;shape=mxgraph.aws4.resourceIcon;resIcon=mxgraph.aws4.ec2;" vertex="1" parent="1">
          <mxGeometry x="638.5" y="741" width="78" height="78" as="geometry" />
        </mxCell>
        <mxCell id="Gi1MZeBFoFd4xO1vJ5Tg-9" value="" style="outlineConnect=0;dashed=0;verticalLabelPosition=bottom;verticalAlign=top;align=center;html=1;shape=mxgraph.aws3.users;fillColor=#848585;gradientColor=none;" vertex="1" parent="1">
          <mxGeometry x="392" y="120" width="66" height="63" as="geometry" />
        </mxCell>
      </root>
    </mxGraphModel>
  </diagram>
</mxfile>
